<?xml version="1.0" encoding="UTF-8"?>
<svg width="512px" height="512px" viewBox="0 0 512 512" version="1.1" xmlns="http://www.w3.org/2000/svg" xmlns:xlink="http://www.w3.org/1999/xlink">
    <!-- Generator: Sketch 48.1 (47250) - http://www.bohemiancoding.com/sketch -->
    <title>sad</title>
    <desc>Created with Sketch.</desc>
    <defs></defs>
    <g id="Page-1" stroke="none" stroke-width="1" fill="none" fill-rule="evenodd">
        <g id="sad" fill-rule="nonzero">
            <circle id="Oval" fill="#77D3FF" cx="256.004" cy="256.004" r="246.855"></circle>
            <g id="Group" transform="translate(9.000000, 60.000000)" fill="#5ABAE8">
                <path d="M117.306,325.694 C28.505,236.892 21.508,97.268 96.308,0.452 C88.023,6.853 80.051,13.85 72.45,21.45 C-23.951,117.851 -23.951,274.148 72.45,370.549 C168.851,466.95 325.148,466.95 421.549,370.549 C429.148,362.95 436.146,354.976 442.548,346.691 C345.733,421.492 206.108,414.494 117.306,325.694 Z" id="Shape"></path>
                <path d="M278.082,303.982 C276.651,303.982 275.2,303.645 273.845,302.936 C265.636,298.638 256.351,296.365 246.995,296.365 C237.643,296.365 228.362,298.637 220.154,302.934 C215.68,305.279 210.149,303.55 207.803,299.073 C205.459,294.597 207.188,289.067 211.664,286.724 C222.481,281.06 234.698,278.066 246.995,278.066 C259.294,278.066 271.515,281.06 282.332,286.724 C286.809,289.067 288.538,294.598 286.194,299.073 C284.561,302.198 281.377,303.982 278.082,303.982 Z" id="Shape"></path>
            </g>
            <path d="M256.001,0 C114.841,0 0,114.841 0,256.001 C0,397.161 114.841,512.002 256.001,512.002 C397.161,512.002 512.001,397.16 512.001,256.001 C512,114.841 397.16,0 256.001,0 Z M256.001,493.701 C124.932,493.701 18.299,387.07 18.299,256.001 C18.299,124.932 124.932,18.299 256.001,18.299 C387.07,18.299 493.703,124.931 493.703,255.999 C493.701,387.07 387.068,493.701 256.001,493.701 Z" id="Shape" fill="#373D41"></path>
            <path d="M257.142,300.395 C219.419,300.395 183.953,315.085 157.279,341.759 C153.706,345.332 153.706,351.124 157.279,354.698 C160.853,358.271 166.646,358.271 170.219,354.698 C193.436,331.48 224.306,318.693 257.142,318.693 C289.978,318.693 320.848,331.48 344.065,354.698 C345.852,356.485 348.193,357.378 350.536,357.378 C352.877,357.378 355.219,356.485 357.007,354.698 C360.58,351.125 360.58,345.333 357.007,341.759 C330.332,315.086 294.865,300.395 257.142,300.395 Z" id="Shape" fill="#373D41"></path>
            <path d="M161.852,136.57 C161.852,131.517 157.757,127.42 152.702,127.42 C147.647,127.42 143.552,131.517 143.552,136.57 C143.552,163.427 121.703,185.277 94.845,185.277 C89.791,185.277 85.695,189.374 85.695,194.427 C85.695,199.48 89.79,203.577 94.845,203.577 C131.792,203.575 161.852,173.517 161.852,136.57 Z" id="Shape" fill="#373D41"></path>
            <path d="M417.155,185.276 C390.297,185.276 368.448,163.427 368.448,136.569 C368.448,131.516 364.353,127.419 359.298,127.419 C354.244,127.419 350.148,131.516 350.148,136.569 C350.148,173.516 380.207,203.575 417.154,203.575 C422.208,203.575 426.304,199.478 426.304,194.425 C426.304,189.372 422.209,185.276 417.155,185.276 Z" id="Shape" fill="#373D41"></path>
            <path d="M180.577,229.983 C180.577,211.317 165.391,196.131 146.725,196.131 C128.059,196.131 112.873,211.317 112.873,229.983 C112.873,248.649 128.059,263.835 146.725,263.835 C165.391,263.835 180.577,248.649 180.577,229.983 Z" id="Shape" fill="#373D41"></path>
            <path d="M365.275,196.131 C346.609,196.131 331.423,211.317 331.423,229.983 C331.423,248.649 346.609,263.835 365.275,263.835 C383.941,263.835 399.127,248.649 399.127,229.983 C399.127,211.317 383.942,196.131 365.275,196.131 Z" id="Shape" fill="#373D41"></path>
            <g id="Group" transform="translate(141.000000, 216.000000)" fill="#FFFFFF">
                <circle id="Oval" cx="9.48" cy="9.372" r="9.15"></circle>
                <circle id="Oval" cx="227.849" cy="9.372" r="9.15"></circle>
            </g>
        </g>
    </g>
</svg>